#!OML:ASF E:\emotionWalksFemale\Project 1\Capture day 1\Session 1\Female1.ASF
:FULLY-SPECIFIED
:DEGREES
591
root 8.6005 15.6163 26.6493 177.038 7.44243 -175.731
lowerback 5.235 1.36343 1.0847
upperback -5.92884 2.1409 -0.224133
thorax -9.15591 1.05297 -1.1391
lowerneck -15.0893 -2.28495 -4.25177
upperneck 21.9002 -2.72056 5.09585
head 9.53916 -0.781174 2.18196
rclavicle 7.95139e-015 -2.22639e-014
rhumerus 30.269 25.515 -45.5855
rradius 29.7325
rwrist 9.55445
rhand 5.80009 -49.7577
rfingers 7.12502
rthumb 31.1328 -77.1337
lclavicle 7.95139e-015 -2.22639e-014
lhumerus 25.5295 -16.4919 50.7408
lradius 28.2575
lwrist -23.8
lhand 2.14134 -36.266
lfingers 7.12502
lthumb 27.6398 -8.27642
rfemur 5.85294 2.34705 19.0143
rtibia 45.2154
rfoot -4.84628 -12.9089
rtoes -1.94915
lfemur -7.8109 -35.6319 -16.7344
ltibia 20.1593
lfoot -35.6883 31.0656
ltoes 22.506
592
root 8.5678 15.6226 26.5558 176.885 7.33968 -175.778
lowerback 4.78091 1.35093 0.802872
upperback -5.61216 2.06656 -0.258851
thorax -8.55063 1.03328 -0.984912
lowerneck -14.9904 -2.31803 -4.53151
upperneck 21.8113 -2.76869 5.39894
head 9.50065 -0.794882 2.32772
rclavicle 2.98177e-014 1.66979e-014
rhumerus 30.5025 26.019 -44.6655
rradius 30.2101
rwrist 8.03142
rhand 4.88378 -49.7128
rfingers 7.12502
rthumb 30.2591 -77.2529
lclavicle 2.98177e-014 1.66979e-014
lhumerus 26.0226 -15.9749 50.9469
lradius 28.1448
lwrist -24.1661
lhand 2.04829 -36.3245
lfingers 7.12502
lthumb 27.5508 -8.32069
rfemur 5.40608 1.92978 18.8207
rtibia 45.6824
rfoot -6.12486 -13.3567
rtoes -2.48795
lfemur -7.17673 -35.7396 -17.3572
ltibia 20.1223
lfoot -35.4398 31.4155
ltoes 21.6938
593
root 8.53869 15.6277 26.4628 176.785 7.22847 -175.733
lowerback 4.90569 1.27018 0.537098
upperback -5.63 1.93324 -0.280151
thorax -8.65371 0.982793 -0.846975
lowerneck -15.0416 -2.31984 -4.48869
upperneck 22.1155 -2.77733 5.45078
head 9.61787 -0.775225 2.34429
rclavicle -2.48481e-014 1.74931e-014
rhumerus 30.4548 26.1799 -44.8321
rradius 30.237
rwrist 7.93292
rhand 5.01956 -49.6377
rfingers 7.12502
rthumb 30.3886 -77.1539
lclavicle -2.48481e-014 1.74931e-014
lhumerus 26.1057 -15.7772 51.0647
lradius 28.1053
lwrist -24.185
lhand 2.04183 -36.1637
lfingers 7.12502
lthumb 27.5446 -8.15889
rfemur 4.93714 1.56305 18.7942
rtibia 46.0089
rfoot -7.21371 -13.9178
rtoes -3.36978
lfemur -6.68669 -35.431 -17.8156
ltibia 20.2202
lfoot -34.5316 31.8733
ltoes 19.0886
594
root 8.51295 15.6338 26.3767 176.836 7.07161 -175.602
lowerback 5.23308 1.14383 0.296534
upperback -5.81891 1.75416 -0.289848
thorax -9.06309 0.911535 -0.714614
lowerneck -15.154 -2.31649 -4.17687
upperneck 22.5635 -2.77929 5.24076
head 9.78988 -0.753625 2.22717
rclavicle 1.17283e-014 1.66979e-014
rhumerus 30.1979 24.9823 -46.9301
rradius 29.2126
rwrist 10.0501
rhand 5.28312 -49.3686
rfingers 7.12502
rthumb 30.64 -76.8381
lclavicle 1.17283e-014 1.66979e-014
lhumerus 26.0207 -15.7948 51.0173
lradius 28.1411
lwrist -23.9368
lhand 1.87861 -35.8957
lfingers 7.12502
lthumb 27.3885 -7.86614
rfemur 4.31508 1.25576 18.9301
rtibia 46.2007
rfoot -8.06884 -14.6582
rtoes -3.5152
lfemur -6.52111 -34.8796 -17.9743
ltibia 20.4521
lfoot -33.749 31.7636
ltoes 17.0721
595
root 8.48596 15.6374 26.2943 176.859 6.88544 -175.442
lowerback 5.25199 1.07298 0.266028
upperback -5.90491 1.66179 -0.319243
thorax -9.1696 0.869822 -0.719452
lowerneck -14.8466 -2.39776 -4.25102
upperneck 22.7487 -2.86672 5.28747
head 9.80413 -0.782408 2.25096
rclavicle 3.06128e-014 1.59028e-014
rhumerus 29.8992 25.9725 -46.0649
rradius 29.9503
rwrist 8.90173
rhand 5.53758 -49.5765
rfingers 7.12502
rthumb 30.8826 -77.0003
lclavicle 3.06128e-014 1.59028e-014
lhumerus 25.9573 -15.6771 51.214
lradius 28.1616
lwrist -24.1322
lhand 1.61063 -35.8109
lfingers 7.12502
lthumb 27.1322 -7.74102
rfemur 3.76228 0.977466 19.1225
rtibia 46.2755
rfoot -8.90298 -15.5067
rtoes -3.85529
lfemur -6.3793 -34.4266 -18.1097
ltibia 20.7751
lfoot -33.3842 31.2958
ltoes 16.2617
596
root 8.45803 15.6393 26.2098 176.796 6.72875 -175.272
lowerback 5.11138 1.06512 0.302085
upperback -5.89877 1.65692 -0.312729
thorax -9.07873 0.866971 -0.72828
lowerneck -14.4088 -2.50706 -4.79906
upperneck 22.8584 -2.96801 5.72318
head 9.78166 -0.815211 2.49005
rclavicle -3.97569e-016 -4.77083e-015
rhumerus 29.5108 25.8491 -46.1415
rradius 29.8386
rwrist 9.06064
rhand 5.58652 -48.8091
rfingers 7.12502
rthumb 30.9292 -76.224
lclavicle -3.97569e-016 -4.77083e-015
lhumerus 26.1027 -15.2566 51.9417
lradius 27.865
lwrist -24.903
lhand 1.48954 -35.9048
lfingers 7.12502
lthumb 27.0163 -7.81698
rfemur 3.31019 0.692286 19.3002
rtibia 46.2398
rfoot -10.0177 -16.2902
rtoes -3.73605
lfemur -6.12633 -34.0591 -18.3232
ltibia 21.1389
lfoot -33.2222 30.9423
ltoes 15.2442
597
root 8.43192 15.6425 26.1245 176.705 6.63326 -175.078
lowerback 5.08051 1.08291 0.369495
upperback -5.89771 1.68558 -0.339063
thorax -9.05627 0.875861 -0.796703
lowerneck -14.0386 -2.59615 -5.21155
upperneck 22.904 -3.07952 6.14939
head 9.74833 -0.845414 2.70022
rclavicle -8.54774e-015 -1.66979e-014
rhumerus 29.011 24.7394 -47.3248
rradius 28.7164
rwrist 9.85111
rhand 3.92403 -46.2313
rfingers 7.12502
rthumb 29.3432 -73.9355
lclavicle -8.54774e-015 -1.66979e-014
lhumerus 26.3045 -15.3434 52.1641
lradius 27.7755
lwrist -24.9137
lhand 1.60044 -35.8198
lfingers 7.12502
lthumb 27.1224 -7.74845
rfemur 2.84427 0.406765 19.498
rtibia 46.1076
rfoot -11.0062 -17.1113
rtoes -3.49743
lfemur -5.8221 -33.6827 -18.5329
ltibia 21.5316
lfoot -33.1082 30.8013
ltoes 13.7542
598
root 8.40704 15.6432 26.0421 176.63 6.54249 -174.913
lowerback 5.05222 1.0912 0.466315
upperback -5.89291 1.69806 -0.439634
thorax -9.02833 0.872031 -0.958008
lowerneck -13.7503 -2.69258 -5.23169
upperneck 22.9739 -3.22075 6.24332
head 9.7296 -0.893709 2.72284
rclavicle 2.20651e-014 3.97569e-015
rhumerus 28.8068 25.3458 -47.1497
rradius 29.2772
rwrist 9.70462
rhand 4.60395 -48.8068
rfingers 7.12502
rthumb 29.9921 -76.3955
lclavicle 2.20651e-014 3.97569e-015
lhumerus 26.503 -15.8226 51.8982
lradius 27.8914
lwrist -24.5537
lhand 1.50278 -35.8338
lfingers 7.12502
lthumb 27.029 -7.7479
rfemur 2.33762 0.187139 19.7053
rtibia 45.9021
rfoot -11.7536 -18.2243
rtoes -3.50457
lfemur -5.58458 -33.1181 -18.7046
ltibia 21.9363
lfoot -32.9058 30.4732
ltoes 12.5683
599
root 8.38257 15.6407 25.959 176.65 6.42857 -174.767
lowerback 4.7577 1.10119 0.493481
upperback -5.84112 1.708 -0.509467
thorax -8.79428 0.875209 -1.03871
lowerneck -13.2103 -2.77438 -5.39625
upperneck 22.7261 -3.35935 6.50433
head 9.55628 -0.947913 2.82259
rclavicle 5.76476e-015 -6.36111e-015
rhumerus 28.7032 25.9571 -46.5322
rradius 29.6718
rwrist 9.06312
rhand 4.90439 -49.3525
rfingers 7.12502
rthumb 30.2788 -76.889
lclavicle 5.76476e-015 -6.36111e-015
lhumerus 26.7082 -16.126 51.7849
lradius 27.9807
lwrist -24.527
lhand 1.28481 -35.9644
lfingers 7.12502
lthumb 26.8204 -7.84637
rfemur 1.74488 0.0762768 19.9356
rtibia 45.6287
rfoot -12.671 -19.4344
rtoes -3.3895
lfemur -5.49499 -32.551 -18.804
ltibia 22.3465
lfoot -32.7255 29.9251
ltoes 11.6181
600
root 8.35839 15.6384 25.8749 176.682 6.34958 -174.621
lowerback 4.42326 1.08585 0.476664
upperback -5.73084 1.68133 -0.491178
thorax -8.47814 0.865421 -0.994609
lowerneck -12.712 -2.79763 -5.91963
upperneck 22.3281 -3.41838 7.09263
head 9.34636 -0.968561 3.10356
rclavicle 9.34288e-015 -1.35174e-014
rhumerus 28.7446 25.3364 -47.0255
rradius 28.79
rwrist 9.18203
rhand 2.90902 -47.1915
rfingers 7.12502
rthumb 28.3736 -75.0612
lclavicle 9.34288e-015 -1.35174e-014
lhumerus 26.9042 -15.9867 51.9828
lradius 27.9441
lwrist -24.7149
lhand 1.25144 -36.1366
lfingers 7.12502
lthumb 26.7885 -8.0136
rfemur 1.13437 -0.0300132 20.1556
rtibia 45.2934
rfoot -13.6248 -20.3533
rtoes -3.35965
lfemur -5.36936 -32.343 -18.9451
ltibia 22.7536
lfoot -32.642 29.741
ltoes 10.0729
601
root 8.33456 15.6338 25.7964 176.599 6.33055 -174.451
lowerback 4.43072 1.04017 0.508119
upperback -5.65079 1.61865 -0.435227
thorax -8.39741 0.83239 -0.944124
lowerneck -12.8417 -2.82929 -6.09154
upperneck 22.5349 -3.42604 7.13025
head 9.44785 -0.97488 3.15023
rclavicle -1.86858e-014 -8.74653e-015
rhumerus 29.0903 24.886 -47.8605
rradius 28.7282
rwrist 11.5466
rhand 5.34246 -47.9572
rfingers 7.12502
rthumb 30.6966 -75.416
lclavicle -1.86858e-014 -8.74653e-015
lhumerus 26.9997 -15.7929 52.1171
lradius 27.8925
lwrist -24.7835
lhand 1.30254 -36.4327
lfingers 7.12502
lthumb 26.8374 -8.31722
rfemur 0.634255 -0.112565 20.3828
rtibia 44.908
rfoot -14.8522 -20.8692
rtoes -1.31129
lfemur -5.07858 -32.2192 -19.1469
ltibia 23.1293
lfoot -32.9242 29.6278
ltoes 9.42205
